<mxfile host="app.diagrams.net" modified="2022-10-11T07:24:04.525Z" agent="5.0 (Macintosh; Intel Mac OS X 10_15_7) AppleWebKit/537.36 (KHTML, like Gecko) Chrome/106.0.0.0 Safari/537.36" etag="Zuhhco72lNpSXSlMxrGQ" version="20.4.0" type="github">
  <diagram id="iSGQDYLVestVF7zTe2C8" name="第 1 页">
    <mxGraphModel dx="706" dy="918" grid="1" gridSize="10" guides="1" tooltips="1" connect="1" arrows="1" fold="1" page="1" pageScale="1" pageWidth="827" pageHeight="1169" math="0" shadow="0">
      <root>
        <mxCell id="0" />
        <mxCell id="1" parent="0" />
        <mxCell id="f8QU2CqbjXQTa1J-NkdH-1" value="a" style="text;html=1;align=center;verticalAlign=middle;resizable=0;points=[];autosize=1;strokeColor=none;fillColor=none;fontSize=35;" vertex="1" parent="1">
          <mxGeometry x="90" y="210" width="40" height="60" as="geometry" />
        </mxCell>
        <mxCell id="f8QU2CqbjXQTa1J-NkdH-2" value="b" style="text;html=1;align=center;verticalAlign=middle;resizable=0;points=[];autosize=1;strokeColor=none;fillColor=none;fontSize=35;" vertex="1" parent="1">
          <mxGeometry x="140" y="210" width="40" height="60" as="geometry" />
        </mxCell>
        <mxCell id="f8QU2CqbjXQTa1J-NkdH-3" value="c" style="text;html=1;align=center;verticalAlign=middle;resizable=0;points=[];autosize=1;strokeColor=none;fillColor=none;fontSize=35;" vertex="1" parent="1">
          <mxGeometry x="190" y="210" width="40" height="60" as="geometry" />
        </mxCell>
        <mxCell id="f8QU2CqbjXQTa1J-NkdH-4" value="b" style="text;html=1;align=center;verticalAlign=middle;resizable=0;points=[];autosize=1;strokeColor=none;fillColor=none;fontSize=35;" vertex="1" parent="1">
          <mxGeometry x="240" y="210" width="40" height="60" as="geometry" />
        </mxCell>
        <mxCell id="f8QU2CqbjXQTa1J-NkdH-5" value="a" style="text;html=1;align=center;verticalAlign=middle;resizable=0;points=[];autosize=1;strokeColor=none;fillColor=none;fontSize=35;" vertex="1" parent="1">
          <mxGeometry x="290" y="210" width="40" height="60" as="geometry" />
        </mxCell>
        <mxCell id="f8QU2CqbjXQTa1J-NkdH-6" value="c" style="text;html=1;align=center;verticalAlign=middle;resizable=0;points=[];autosize=1;strokeColor=none;fillColor=none;fontSize=35;" vertex="1" parent="1">
          <mxGeometry x="340" y="210" width="40" height="60" as="geometry" />
        </mxCell>
        <mxCell id="f8QU2CqbjXQTa1J-NkdH-7" value="d" style="text;html=1;align=center;verticalAlign=middle;resizable=0;points=[];autosize=1;strokeColor=none;fillColor=none;fontSize=35;" vertex="1" parent="1">
          <mxGeometry x="410" y="210" width="40" height="60" as="geometry" />
        </mxCell>
        <mxCell id="f8QU2CqbjXQTa1J-NkdH-8" value="c" style="text;html=1;align=center;verticalAlign=middle;resizable=0;points=[];autosize=1;strokeColor=none;fillColor=none;fontSize=35;" vertex="1" parent="1">
          <mxGeometry x="460" y="210" width="40" height="60" as="geometry" />
        </mxCell>
        <mxCell id="f8QU2CqbjXQTa1J-NkdH-9" value="a" style="text;html=1;align=center;verticalAlign=middle;resizable=0;points=[];autosize=1;strokeColor=none;fillColor=none;fontSize=35;" vertex="1" parent="1">
          <mxGeometry x="510" y="210" width="40" height="60" as="geometry" />
        </mxCell>
      </root>
    </mxGraphModel>
  </diagram>
</mxfile>
